<?xml version="1.0" encoding="utf-8"?>
<!-- Generator: Adobe Illustrator 24.0.3, SVG Export Plug-In . SVG Version: 6.00 Build 0)  -->
<svg version="1.1" id="Capa_1" xmlns="http://www.w3.org/2000/svg" xmlns:xlink="http://www.w3.org/1999/xlink" x="0px" y="0px"
	 viewBox="0 0 49 49" style="enable-background:new 0 0 49 49;" xml:space="preserve">
<style type="text/css">
	.st0{fill:#3E5380;}
	.st1{fill:#F9F9F9;}
</style>
<g transform="translate(-960 -726)">
	<circle class="st0" cx="984.5" cy="750.5" r="24.5"/>
	<g>
		<g>
			<g>
				<circle class="st1" cx="984.5" cy="741.1" r="3.1"/>
			</g>
		</g>
		<g>
			<g>
				<path class="st1" d="M989.2,752.7l-0.7-5.5c-0.1-0.8-0.7-1.4-1.6-1.4h-0.9c-0.2,0-0.4,0.1-0.6,0.2l-1,1l-1-1
					c-0.1-0.1-0.3-0.2-0.6-0.2h-0.9c-0.8,0-1.5,0.6-1.6,1.4l-0.7,5.5c0,0.2,0,0.4,0.2,0.6c0.1,0.2,0.4,0.3,0.6,0.3h0.8l0.7,8
					c0.1,0.8,0.7,1.4,1.6,1.4h1.7c0.8,0,1.5-0.6,1.6-1.4l0.7-7.9h0.8c0.2,0,0.4-0.1,0.6-0.3C989.1,753.2,989.2,753,989.2,752.7z"/>
			</g>
		</g>
		<g>
			<g>
				<circle class="st1" cx="992.3" cy="741.1" r="3.1"/>
			</g>
		</g>
		<g>
			<g>
				<path class="st1" d="M976.7,738c-1.7,0-3.1,1.4-3.1,3.1c0,1.7,1.4,3.1,3.1,3.1c1.7,0,3.1-1.4,3.1-3.1
					C979.8,739.4,978.4,738,976.7,738z"/>
			</g>
		</g>
		<g>
			<g>
				<path class="st1" d="M997,752.7l-0.7-5.5c-0.1-0.8-0.7-1.4-1.6-1.4h-0.9c-0.2,0-0.4,0.1-0.6,0.2l-1,1l-1-1
					c-0.1-0.1-0.3-0.2-0.6-0.2h-0.9c-0.1,0-0.2,0-0.3,0.1c0.2,0.4,0.4,0.7,0.4,1.2l0.7,5.5c0.1,0.7-0.1,1.3-0.6,1.9
					c-0.2,0.2-0.5,0.4-0.8,0.5l0.5,5.1c0.1,0.8,0.7,1.4,1.6,1.4h1.7c0.8,0,1.5-0.6,1.6-1.4l0.6-6.4h0.8c0.2,0,0.4-0.1,0.6-0.3
					C996.9,753.2,997,753,997,752.7z"/>
			</g>
		</g>
		<g>
			<g>
				<path class="st1" d="M978.8,754.4c-0.4-0.5-0.6-1.2-0.6-1.8l0.7-5.5c0-0.4,0.2-0.8,0.4-1.1c-0.1,0-0.2,0-0.3,0h-0.9
					c-0.2,0-0.4,0.1-0.6,0.2l-1,1l-1-1c-0.1-0.1-0.3-0.2-0.6-0.2h-0.9c-0.8,0-1.5,0.6-1.6,1.4l-0.7,5.5c0,0.2,0,0.4,0.2,0.6
					c0.1,0.2,0.4,0.3,0.6,0.3h0.8l0.7,6.4c0.1,0.8,0.7,1.4,1.6,1.4h1.7c0.8,0,1.5-0.6,1.6-1.4l0.5-5.1
					C979.3,754.8,979.1,754.6,978.8,754.4z"/>
			</g>
		</g>
	</g>
</g>
</svg>
