<?xml version="1.0" encoding="utf-8"?>
<!-- Generator: Adobe Illustrator 24.0.1, SVG Export Plug-In . SVG Version: 6.00 Build 0)  -->
<svg version="1.1" id="Capa_1" xmlns="http://www.w3.org/2000/svg" xmlns:xlink="http://www.w3.org/1999/xlink" x="0px" y="0px"
	 viewBox="0 0 59.9 72.4" style="enable-background:new 0 0 59.9 72.4;" xml:space="preserve">
<style type="text/css">
	.st0{fill:#FFFFFF;}
</style>
<g transform="translate(-19.664 -0.5)">
	<path class="st0" d="M41.9,40L41.9,40c1.4,0,2.6,1.2,2.6,2.6v0.1c0,1.4-1.2,2.6-2.6,2.6l0,0c-1.4,0-2.6-1.2-2.6-2.6v-0.1
		C39.2,41.1,40.4,40,41.9,40z"/>
	<path class="st0" d="M64.3,42l-3-1.5c-0.8-0.4-1.6-0.5-2.4-0.6h-2.7c-0.7,0-1.3,0.6-1.3,1.3V44c0,0.7,0.6,1.3,1.3,1.3h2.7
		c0.7,0,1.3-0.6,1.3-1.3v-0.1c-0.1-0.4,0.2-0.8,0.6-0.8c0.2,0,0.4,0,0.5,0.1l3,1.5c0.3,0.2,0.8,0.2,1-0.2c0.1-0.2,0.2-0.4,0.1-0.5
		v-0.1C65.4,43.1,65,42.4,64.3,42z"/>
	<path class="st0" d="M63.9,61.9c-0.5,0.1-1,0.3-1.3,0.7c-0.1,0.1-0.5,0.5-1.2,1.1c-0.8,0.7-1.6,1.3-2.5,1.8c-0.9,0.5-1.8,1-2.7,1.5
		c-0.9,0.4-1.9,0.8-2.8,1c-1,0.2-2,0.4-3,0.5l-0.2,0c-1,0.1-2,0.1-2.9,0c-1-0.1-2-0.2-3.1-0.4c-0.9-0.2-1.6-0.4-1.6-0.4
		c-0.3-0.1-0.6-0.1-0.9-0.1c-0.4,0-0.8,0.2-1.1,0.5c-0.2,0.3-0.3,0.7-0.2,1c0.3,0.8,1,1.5,1.8,1.9c0.6,0.3,1.3,0.5,2,0.8
		c1.1,0.3,2.2,0.6,3.3,0.7c0.7,0.1,1.5,0.1,2.2,0.1c0.4,0,0.8,0,1.1,0h0.1c2.3-0.1,4.5-0.7,6.5-1.7c1-0.5,2-1,3-1.7
		c0.9-0.7,1.8-1.4,2.6-2.2c0.5-0.5,1-1,1.4-1.6c0.6-0.7,0.8-1.6,0.7-2.5C65,62.3,64.4,61.9,63.9,61.9z"/>
	<path class="st0" d="M62.5,4.8c-1.7-1.3-3.8-2-5.9-1.9c-0.4,0-1.5,0-2.4,0c-0.5,0-1,0-1.1,0c-0.7,0-1.3-0.4-1.7-1
		C51,1.3,50.5,0.9,50,0.7V0.5h-0.8h-0.1h-0.1l-0.8,0v0.2c-0.5,0.3-1,0.6-1.3,1.1c-0.4,0.6-1,1-1.7,1c-0.4,0-1.5,0-1.8,0
		c-0.5,0-1.1,0-1.8,0c-2.1,0-4.2,0.7-5.9,1.9c0,0-3.4,2.8-3.2,5c0,0.7,0.4,1.2,1,1.5c0.2,0.1,0.5,0.2,0.8,0.2c1.2,0,2.1-1.3,2.7-2.3
		c0.2-0.3,0.4-0.6,0.6-0.8c1.3-1.1,3-1.6,4.7-1.4c0.3,0,0.7,0,1.3-0.1c0.8-0.1,1.7-0.1,2.2-0.1c0.8-0.2,1.6-0.5,2.2-1
		c0.4-0.3,0.6-0.5,0.9-0.6c0.3,0,0.6,0.2,0.9,0.6c0.7,0.5,1.4,0.9,2.2,1c0.4,0,1.3,0.1,2.2,0.1C55.1,7,55.6,7,55.8,7
		c1.7-0.2,3.4,0.4,4.7,1.4C60.8,8.7,61,9,61.2,9.3c0.7,1,1.5,2.3,2.7,2.3c0.3,0,0.6-0.1,0.8-0.2c0.6-0.3,1-0.9,1-1.5
		C65.9,7.6,62.6,4.8,62.5,4.8z"/>
	<path class="st0" d="M49.1,40.9c0-3.6-0.7-6.1-2.1-7.4c-1.4-1.3-6.6-1.9-6.6-1.9c-0.7-0.1-1.9-0.1-2.6-0.1h-0.2c-0.7,0-1.7,0-2.3,0
		s-1.6,0-2.3,0.1c0,0-9.5,0.4-11.1,1.5s-2.4,3.7-2.4,7.9c0,4.3,0.8,6.9,2.4,7.9s5.8,1.5,12.7,1.5c6.4,0,10.3-0.5,11.9-1.6
		C48.3,47.7,49.1,45.1,49.1,40.9z M45.1,46.7c-0.9,0.8-4.8,1.1-4.8,1.1c-0.7,0.1-1.9,0.1-2.6,0.1h-0.2c-0.7,0-1.7,0-2.2,0
		s-1.5,0-2.2,0c0,0-8.2-0.3-9.2-0.9s-1.5-2.7-1.5-6.2s0.5-5.6,1.5-6.2s4.5-0.9,10.5-0.9s9.4,0.3,10.4,0.9s1.5,2.6,1.5,6.2
		C46.4,43.9,45.9,45.8,45.1,46.7L45.1,46.7z"/>
	<path class="st0" d="M77.5,33.4c-1.4-1.3-6.6-1.9-6.6-1.9c-0.7-0.1-1.9-0.1-2.6-0.1h-0.2c-0.7,0-1.7,0-2.3,0s-1.6,0-2.3,0.1
		c0,0-9.5,0.4-11.1,1.5s-2.4,3.7-2.4,7.9c0,4.3,0.8,6.9,2.4,7.9c1.6,1,5.8,1.5,12.7,1.5c6.4,0,10.4-0.5,11.9-1.6
		c1.6-1,2.4-3.7,2.4-7.9C79.6,37.2,78.9,34.8,77.5,33.4z M75.5,46.7c-0.9,0.8-4.8,1.1-4.8,1.1c-0.7,0.1-1.9,0.1-2.6,0.1H68
		c-0.7,0-1.7,0-2.2,0s-1.5,0-2.2,0c0,0-8.2-0.3-9.2-0.9s-1.5-2.7-1.5-6.2s0.5-5.6,1.5-6.2s4.5-0.9,10.5-0.9c6,0,9.4,0.3,10.4,0.9
		s1.5,2.6,1.5,6.2C76.8,43.9,76.4,45.8,75.5,46.7z"/>
</g>
</svg>
